<?xml version="1.0" encoding="UTF-8" standalone="no"?>
<!-- Created with Inkscape (http://www.inkscape.org/) -->

<svg
   width="23.000002mm"
   height="23.000002mm"
   viewBox="0 0 23.000002 23.000002"
   version="1.1"
   id="svg1"
   xml:space="preserve"
   xmlns="http://www.w3.org/2000/svg"
   xmlns:svg="http://www.w3.org/2000/svg"><defs
     id="defs1" /><g
     id="layer1"
     style="display:inline"
     transform="translate(-84.749997,-224.74999)"><g
       id="g247"
       transform="translate(4.1018606e-6,5.0000066)"><path
         style="fill:none;stroke:#000000;stroke-width:0.5;stroke-linecap:round;stroke-linejoin:round;stroke-dasharray:none"
         d="m 90.000001,219.99999 v 20"
         id="path194" /><path
         style="display:inline;opacity:1;fill:none;fill-opacity:1;stroke:#000000;stroke-width:0.499999;stroke-linecap:round;stroke-linejoin:round;stroke-opacity:1"
         d="M 96.249999,247.49999 V 242.5"
         id="path355"
         transform="translate(-4.1018606e-6,-5.0000066)" /><path
         style="fill:#ffffff;fill-opacity:1;stroke:#000000;stroke-width:0.499999;stroke-linecap:round;stroke-linejoin:round;stroke-opacity:1"
         d="m 90.000001,234.99999 h -5"
         id="path323" /><path
         style="fill:#ffffff;fill-opacity:1;stroke:#000000;stroke-width:0.499999;stroke-linecap:round;stroke-linejoin:round;stroke-opacity:1"
         d="m 90.000001,224.99999 h -5"
         id="path324" /><path
         style="fill:#ffffff;fill-opacity:1;stroke:#000000;stroke-width:0.499999;stroke-linecap:round;stroke-linejoin:round;stroke-opacity:1"
         d="m 90,239.99999 12.5,-5"
         id="path341" /><path
         style="fill:#ffffff;fill-opacity:1;stroke:#000000;stroke-width:0.499999;stroke-linecap:round;stroke-linejoin:round;stroke-opacity:1"
         d="m 90,219.99999 12.5,5"
         id="path342" /><path
         style="display:inline;fill:#ffffff;fill-opacity:1;stroke:#000000;stroke-width:0.499999;stroke-linecap:round;stroke-linejoin:round;stroke-opacity:1"
         d="m 102.5,227.49999 v 10"
         id="path343"
         transform="translate(-1.6858857e-6,-2.5000032)" /><path
         style="display:inline;fill:#ffffff;fill-opacity:1;stroke:#000000;stroke-width:0.499999;stroke-linecap:round;stroke-linejoin:round;stroke-opacity:1"
         d="m 102.5,232.49999 h 5"
         id="path344"
         transform="translate(-1.6858857e-6,-2.5000032)" /><path
         style="display:inline;fill:#ffffff;fill-opacity:1;stroke:none;stroke-width:0.472441;stroke-linecap:round;stroke-linejoin:round;stroke-opacity:1"
         d="m 341.24997,878.74991 c 0,-19.86874 0.0844,-36.12066 0.1875,-36.11536 0.10312,0.005 10.2,4.02717 22.43749,8.9375 l 22.25,8.92787 v 18.23694 18.23695 l -22.37312,8.95055 c -12.30521,4.9228 -22.40209,8.95055 -22.43749,8.95055 -0.0354,0 -0.0644,-16.25625 -0.0644,-36.125 z"
         id="path345"
         transform="matrix(0.26458333,0,0,0.26458333,-1.6858857e-6,-2.5000032)" /></g></g></svg>
