<?xml version="1.0" encoding="UTF-8" standalone="no"?>
<!-- Created with Inkscape (http://www.inkscape.org/) -->

<svg
   width="30.500004mm"
   height="14.999989mm"
   viewBox="0 0 30.500004 14.999989"
   version="1.1"
   id="svg1"
   xml:space="preserve"
   xmlns="http://www.w3.org/2000/svg"
   xmlns:svg="http://www.w3.org/2000/svg"><defs
     id="defs1" /><g
     id="layer1"
     style="display:inline"
     transform="translate(-94.749992,-234.99999)"><g
       id="g116-9"
       transform="matrix(0.96713333,0,0,0.96713333,-10.285634,138.53316)"
       style="display:inline"><ellipse
         style="fill:#ffffff;fill-opacity:1;stroke:#000000;stroke-width:0.5;stroke-linecap:round;stroke-linejoin:round;stroke-dasharray:none;stroke-opacity:1"
         id="path39-6-7"
         cx="134.56648"
         cy="107.5"
         rx="1.3636367"
         ry="1.3636365" /><path
         style="fill:none;fill-opacity:1;fill-rule:nonzero;stroke:#000000;stroke-width:0.499999;stroke-linecap:round;stroke-linejoin:round;stroke-opacity:1"
         d="m 114.45285,99.999997 c 0,0 3.75,2.985283 3.75,7.500003 0,4.51472 -3.75,7.5 -3.75,7.5"
         id="path219" /><path
         style="fill:none;fill-opacity:1;fill-rule:nonzero;stroke:#000000;stroke-width:0.499999;stroke-linecap:round;stroke-linejoin:round;stroke-opacity:1"
         d="m 114.45285,99.999997 h 7.5"
         id="path218" /><path
         style="fill:none;fill-opacity:1;fill-rule:nonzero;stroke:#000000;stroke-width:0.499999;stroke-linecap:round;stroke-linejoin:round;stroke-opacity:1"
         d="m 114.45285,115 h 7.5"
         id="path217" /><path
         style="fill:none;fill-opacity:1;fill-rule:nonzero;stroke:#000000;stroke-width:0.499999;stroke-linecap:round;stroke-linejoin:round;stroke-opacity:1"
         d="m 121.95285,99.999997 c 0,0 6.95527,-0.475859 11.25,7.500003"
         id="path216" /><path
         style="fill:none;fill-opacity:1;fill-rule:nonzero;stroke:#000000;stroke-width:0.499999;stroke-linecap:round;stroke-linejoin:round;stroke-opacity:1"
         d="m 121.95285,115 c 0,0 6.95527,0.47586 11.25,-7.5"
         id="path102-1-0-4-5" /><path
         style="fill:none;stroke:#000000;stroke-width:0.516991;stroke-linecap:round;stroke-linejoin:round;stroke-dasharray:none"
         d="m 116.62967,102.49999 h -7.76605"
         id="path197" /><path
         style="fill:none;stroke:#000000;stroke-width:0.516991;stroke-linecap:round;stroke-linejoin:round;stroke-dasharray:none"
         d="m 116.62967,112.5 h -7.76605"
         id="path198" /><path
         style="fill:none;stroke:#000000;stroke-width:0.516991;stroke-linecap:round;stroke-linejoin:round;stroke-dasharray:none"
         d="m 135.93012,107.5 h 3.95301"
         id="path199" /><path
         style="display:inline;fill:none;stroke:#000000;stroke-width:0.499999;stroke-linecap:round;stroke-linejoin:round;stroke-opacity:1"
         d="m 112.31613,99.999997 c 0,0 3.75,2.985283 3.75,7.500003 0,4.51472 -3.75,7.5 -3.75,7.5"
         id="path91-3-3-3-2" /><path
         style="fill:#ffffff;fill-opacity:1;fill-rule:nonzero;stroke:none;stroke-width:0.668132;stroke-linecap:round;stroke-linejoin:round;stroke-dasharray:2.00439, 2.00439;stroke-opacity:1"
         d="m 384.31145,940.71709 c 4.03655,-4.5007 7.55745,-10.89912 8.99804,-16.35184 0.98199,-3.71691 1.10717,-10.13346 0.27596,-14.14568 -1.15457,-5.57308 -4.01403,-11.49114 -7.74707,-16.03369 -0.93646,-1.13953 -2.09158,-2.54534 -2.56694,-3.12402 l -0.86428,-1.05216 14.82964,0.16245 c 12.04974,0.13199 15.28192,0.27026 17.24236,0.7376 12.56301,2.99486 22.22168,10.0188 29.89279,21.73854 1.19127,1.81999 2.16594,3.53309 2.16594,3.80691 0,0.74277 -3.32627,5.97205 -5.59369,8.79393 -7.24902,9.02165 -16.38776,14.7446 -27.06771,16.9506 -2.15567,0.44527 -5.40518,0.55029 -17.02622,0.55029 h -14.3621 z"
         id="path236"
         transform="matrix(0.27357483,0,0,0.27357483,10.635177,-143.24102)" /></g></g></svg>
