<?xml version="1.0" encoding="UTF-8" standalone="no"?>
<!-- Created with Inkscape (http://www.inkscape.org/) -->

<svg
   width="30.250002mm"
   height="14.924914mm"
   viewBox="0 0 30.250002 14.924914"
   version="1.1"
   id="svg1"
   xml:space="preserve"
   xmlns="http://www.w3.org/2000/svg"
   xmlns:svg="http://www.w3.org/2000/svg"><defs
     id="defs1" /><g
     id="layer1"
     style="display:inline"
     transform="translate(-135,-205.00002)"><g
       id="g108-9-88"
       transform="matrix(0.96229211,0,0,0.96229211,31.444266,133.07336)"
       style="display:inline"><path
         style="display:inline;fill:none;fill-opacity:1;stroke:#000000;stroke-width:0.499999;stroke-linecap:round;stroke-linejoin:round;stroke-opacity:1"
         d="m 113.75,74.999998 c 0,0 3.75,2.985283 3.75,7.500003 0,4.51472 -3.75,7.5 -3.75,7.5"
         id="path223" /><path
         style="display:inline;fill:none;fill-opacity:1;stroke:#000000;stroke-width:0.499999;stroke-linecap:round;stroke-linejoin:round;stroke-opacity:1"
         d="m 113.75,74.999998 h 7.5"
         id="path222" /><path
         style="display:inline;fill:none;fill-opacity:1;stroke:#000000;stroke-width:0.499999;stroke-linecap:round;stroke-linejoin:round;stroke-opacity:1"
         d="m 113.75,90.000001 h 7.5"
         id="path221" /><path
         style="display:inline;fill:none;fill-opacity:1;stroke:#000000;stroke-width:0.499999;stroke-linecap:round;stroke-linejoin:round;stroke-opacity:1"
         d="m 121.25,74.999998 c 0,0 6.95527,-0.475859 11.25,7.500003"
         id="path220" /><path
         style="display:inline;fill:none;fill-opacity:1;stroke:#000000;stroke-width:0.499999;stroke-linecap:round;stroke-linejoin:round;stroke-opacity:1"
         d="m 121.25,90.000001 c 0,0 6.95527,0.47586 11.25,-7.5"
         id="path102-1-0-07" /><path
         style="fill:none;stroke:#000000;stroke-width:0.499999;stroke-linecap:round;stroke-linejoin:round;stroke-opacity:1"
         d="m 111.61328,74.999998 c 0,0 3.75,2.985283 3.75,7.500003 0,4.51472 -3.75,7.5 -3.75,7.5"
         id="path91-3-3-1" /><path
         style="fill:none;stroke:#000000;stroke-width:0.499999;stroke-linecap:round;stroke-linejoin:round;stroke-opacity:1"
         d="m 132.5,82.500001 h 5"
         id="path104-6-6" /><path
         style="fill:none;stroke:#000000;stroke-width:0.499999;stroke-linecap:round;stroke-linejoin:round;stroke-opacity:1"
         d="m 107.86362,77.499996 h 8.0632"
         id="path115-3" /><path
         style="fill:none;stroke:#000000;stroke-width:0.499999;stroke-linecap:round;stroke-linejoin:round;stroke-opacity:1"
         d="m 107.86362,87.500001 h 8.0632"
         id="path116-61" /><path
         style="fill:#ffffff;fill-opacity:1;fill-rule:nonzero;stroke:none;stroke-width:0.668132;stroke-linecap:round;stroke-linejoin:round;stroke-dasharray:2.00439, 2.00439;stroke-opacity:1"
         d="m 536.67416,827.93357 c 6.90816,-8.25571 9.90662,-14.80842 10.49156,-22.9278 0.64011,-8.88523 -3.00869,-18.51936 -9.929,-26.21611 l -1.66891,-1.85616 h 14.13584 c 11.1576,0 14.73155,0.113 16.9633,0.53636 11.94984,2.26685 22.42242,9.58023 29.97774,20.93455 2.92938,4.40235 2.95208,4.50224 1.54986,6.82038 -3.59773,5.94774 -9.43412,12.36011 -14.65474,16.10099 -5.28334,3.78583 -12.46653,6.68536 -18.71511,7.55446 -1.54343,0.21467 -8.48145,0.37916 -15.99299,0.37916 h -13.26696 z"
         id="path237"
         transform="matrix(0.27495116,0,0,0.27495116,-32.676425,-138.28791)" /><path
         style="display:inline;fill:none;stroke:#000000;stroke-width:0.499999;stroke-linecap:round;stroke-linejoin:round;stroke-dasharray:none"
         d="M 163.75943,212.46246 H 165"
         id="path193"
         transform="matrix(1.0391855,0,0,1.0391855,-32.676425,-138.28791)" /></g></g></svg>
